<svg xmlns="http://www.w3.org/2000/svg" version="1.1" xmlns:xlink="http://www.w3.org/1999/xlink" width="2000" height="162" viewBox="0 0 2000 162"><svg xml:space="preserve" width="2000" height="162" data-version="2" data-id="lg_f28WGve9TmLVzKprOj" viewBox="0 0 679 162" x="0" y="0"><rect width="100%" height="100%" fill="transparent"></rect><path d="M203.52 119.254v16.67h-33.25v-16.67h7.49l12.97-42.02h-9.9v-16.67h46.94l16.81 58.69h7.44v16.67h-42.39v-16.67h6.16l-2.04-8.06h-17.1l-2.13 8.06Zm7.96-19.52-5.5-23.06-6.91 23.06Z"></path><rect width="81.75" height="75.36" x="-40.88" y="-37.68" fill="none" rx="0" ry="0" transform="translate(211.65 98.74)"></rect><path d="M288.7 154.724h-34.91v-14.35h6.11v-40.54h-6.11v-12.7l28.8-2.93v8.05q2.41-3.36 6.25-5.71 3.84-2.34 9-2.34 6.77 0 11.56 3.5 4.78 3.51 7.17 9.43 2.39 5.92 2.39 13.16 0 7.2-2.37 13.31-2.36 6.02-7.17 9.59-4.81 3.58-11.68 3.58-4.78 0-8.69-1.87-3.9-1.87-6.46-4.62v10.18h6.11Zm.71-31.78q4.26 0 6.3-3.41 2.03-3.41 2.03-8.95 0-5.69-2.22-9.1-2.23-3.41-5.83-3.41-2.41 0-4.35 1.21-1.95 1.21-2.75 3.15v16.44q2.13 4.07 6.82 4.07"></path><rect width="65.17" height="70.52" x="-32.59" y="-35.26" fill="none" rx="0" ry="0" transform="translate(286.88 119.96)"></rect><path d="M359 154.724h-34.9v-14.35h6.11v-40.54h-6.11v-12.7l28.79-2.93v8.05q2.42-3.36 6.26-5.71 3.83-2.34 8.99-2.34 6.78 0 11.56 3.5 4.78 3.51 7.18 9.43 2.39 5.92 2.39 13.16 0 7.2-2.37 13.31-2.37 6.02-7.18 9.59-4.8 3.58-11.67 3.58-4.78 0-8.69-1.87-3.91-1.87-6.47-4.62v10.18H359Zm.71-31.78q4.27 0 6.3-3.41 2.04-3.41 2.04-8.95 0-5.69-2.23-9.1-2.22-3.41-5.82-3.41-2.42 0-4.36 1.21-1.94 1.21-2.75 3.15v16.44q2.13 4.07 6.82 4.07"></path><rect width="65.17" height="70.52" x="-32.59" y="-35.26" fill="none" rx="0" ry="0" transform="translate(357.19 119.96)"></rect><path d="M412.97 80.224q-5.92 0-9.76-2.8-3.84-2.79-3.84-8.05 0-5.26 3.84-7.96t9.85-2.7q6.02 0 9.78 2.66 3.77 2.65 3.77 8 0 5.26-3.86 8.05-3.86 2.8-9.78 2.8m17.43 41.44v14.26h-34.91v-14.26h6.11v-21.83h-6.11v-11.66l28.8-2.98v36.47Z"></path><rect width="34.91" height="77.21" x="-17.45" y="-38.6" fill="none" rx="0" ry="0" transform="translate(413.45 97.82)"></rect><path d="M475.41 135.924h-39.36v-14.26h7.58v-22.59h-7.58v-13.88h7.58v-4.55q0-19.13 16.86-19.13 3.7 0 7.96.69 4.26.68 6.96 1.54v13.97q-3.55-.57-4.93-.57-4.16 0-4.16 6.3v1.75h9.09v13.88h-9.09v22.59h9.09Z"></path><rect width="39.36" height="74.41" x="-19.68" y="-37.2" fill="none" rx="0" ry="0" transform="translate(456.23 99.22)"></rect><path d="M530.13 138.814v14.96h-32.77v-14.96h9.61l2.61-4.36-22.12-34.62h-6.02v-14.64h35.53v14.64h-4.69l7.86 14.54 7.2-14.54h-5.16v-14.64h26.47v14.64h-5.11l-20.7 38.98Z"></path><rect width="67.21" height="68.58" x="-33.6" y="-34.29" fill="none" rx="0" ry="0" transform="translate(515.55 119.98)"></rect><path d="M556.01 137.294q-5.49 0-9.38-3.32-3.69-3.07-3.69-8.62 0-5.44 3.69-8.43 3.74-3.22 9.38-3.22 6.11 0 9.9 3.22t3.79 8.43q0 5.31-3.89 8.62-3.93 3.23-9.66 3.23Z"></path><rect width="26.76" height="23.59" x="-13.38" y="-11.79" fill="none" rx="0" ry="0" transform="translate(556.82 126)"></rect><path d="M591.17 80.224q-5.92 0-9.75-2.8-3.84-2.79-3.84-8.05 0-5.26 3.84-7.96 3.83-2.7 9.85-2.7 6.01 0 9.78 2.66 3.76 2.65 3.76 8 0 5.26-3.86 8.05-3.86 2.8-9.78 2.8m17.43 41.44v14.26h-34.91v-14.26h6.11v-21.83h-6.11v-11.66l28.8-2.98v36.47Z"></path><rect width="34.91" height="77.21" x="-17.45" y="-38.6" fill="none" rx="0" ry="0" transform="translate(591.65 97.82)"></rect><path d="M642.67 136.774q-8.62 0-15.01-3.17-6.49-3.13-10.09-9.19-3.6-6.06-3.6-14.4 0-8.29 3.6-14.07 3.6-5.82 10.09-8.78 6.49-2.96 15.01-2.96 8.77 0 15.23 3.03 6.47 3.03 10.02 8.78 3.55 5.76 3.55 14 0 8.34-3.55 14.4-3.6 6.06-10.11 9.21-6.52 3.15-15.14 3.15m0-13.83q3.13 0 4.65-3.08 1.46-2.98 1.46-9.85 0-6.3-1.44-9.12-1.45-2.82-4.67-2.82-3.07 0-4.54 2.82-1.47 2.82-1.47 9.12 0 6.72 1.51 9.85 1.52 3.08 4.5 3.08"></path><rect width="57.5" height="52.57" x="-28.75" y="-26.29" fill="none" rx="0" ry="0" transform="translate(643.22 110.99)"></rect><g transform="translate(66.7 92.36)scale(1.5968)"><linearGradient id="a" x1="0" x2="1" y1="0" y2="0" gradientUnits="objectBoundingBox"><stop offset="0%" stop-color="#22b1e3"></stop><stop offset="100%" stop-color="#7366ff"></stop></linearGradient><path fill="url(#a)" d="M38.681 58.13c1.12 0 2.398-.64 2.398-1.601H36.28c0 .961 1.28 1.601 2.401 1.601" transform="translate(-38.68 -57.33)"></path></g><g transform="translate(45.56 35.62)scale(1.5968)"><linearGradient id="b" x1="0" x2="1" y1="0" y2="0" gradientUnits="objectBoundingBox"><stop offset="0%" stop-color="#22b1e3"></stop><stop offset="100%" stop-color="#7366ff"></stop></linearGradient><path fill="url(#b)" d="M22.555 17.029c-1.246-1.403-2.785-.037-1.539 1.368.294.329 7.773 8.751 7.773 8.751l1.539-1.367z" transform="translate(-25.44 -21.8)"></path></g><g transform="translate(66.7 88.95)scale(1.5968)"><linearGradient id="c" x1="0" x2="1" y1="0" y2="0" gradientUnits="objectBoundingBox"><stop offset="0%" stop-color="#22b1e3"></stop><stop offset="100%" stop-color="#7366ff"></stop></linearGradient><path fill="url(#c)" d="M41.88 54.555h-6.401a.48.48 0 0 0-.48.481v.319a.48.48 0 0 0 .48.479h6.401a.48.48 0 0 0 .48-.479v-.319a.48.48 0 0 0-.48-.481" transform="translate(-38.68 -55.2)"></path></g><g transform="translate(66.82 27.28)scale(1.5968)"><linearGradient id="d" x1="0" x2="1" y1="0" y2="0" gradientUnits="objectBoundingBox"><stop offset="0%" stop-color="#22b1e3"></stop><stop offset="100%" stop-color="#7366ff"></stop></linearGradient><path fill="url(#d)" d="M39.786 11.424c0-1.878-2.059-1.878-2.059 0v11.705h2.059z" transform="translate(-38.76 -16.57)"></path></g><g transform="translate(33.8 55.31)scale(1.5968)"><linearGradient id="e" x1="0" x2="1" y1="0" y2="0" gradientUnits="objectBoundingBox"><stop offset="0%" stop-color="#22b1e3"></stop><stop offset="100%" stop-color="#7366ff"></stop></linearGradient><path fill="url(#e)" d="m12.765 34.265 11.568 1.784.313-2.035-11.568-1.783c-1.857-.286-2.169 1.748-.313 2.034" transform="translate(-18.08 -34.13)"></path></g><g transform="translate(99.88 55.7)scale(1.5968)"><linearGradient id="f" x1="0" x2="1" y1="0" y2="0" gradientUnits="objectBoundingBox"><stop offset="0%" stop-color="#22b1e3"></stop><stop offset="100%" stop-color="#7366ff"></stop></linearGradient><path fill="url(#f)" d="m64.463 32.474-11.568 1.785.314 2.034 11.568-1.783c1.855-.287 1.542-2.321-.314-2.036" transform="translate(-59.46 -34.37)"></path></g><g transform="translate(66.7 85.89)scale(1.5968)"><linearGradient id="g" x1="0" x2="1" y1="0" y2="0" gradientUnits="objectBoundingBox"><stop offset="0%" stop-color="#22b1e3"></stop><stop offset="100%" stop-color="#7366ff"></stop></linearGradient><path fill="url(#g)" d="M41.88 52.635h-6.401a.48.48 0 0 0-.48.479v.319a.48.48 0 0 0 .48.481h6.401a.48.48 0 0 0 .48-.481v-.319a.479.479 0 0 0-.48-.479" transform="translate(-38.68 -53.27)"></path></g><g transform="translate(88.13 35.62)scale(1.5968)"><linearGradient id="h" x1="0" x2="1" y1="0" y2="0" gradientUnits="objectBoundingBox"><stop offset="0%" stop-color="#22b1e3"></stop><stop offset="100%" stop-color="#7366ff"></stop></linearGradient><path fill="url(#h)" d="m54.986 17.029-7.772 8.752 1.538 1.367 7.772-8.751c1.248-1.405-.291-2.772-1.538-1.368" transform="translate(-52.1 -21.8)"></path></g><g transform="translate(74.17 80.2)scale(1.5968)"><linearGradient id="i" x1="0" x2="1" y1="0" y2="0" gradientUnits="objectBoundingBox"><stop offset="0%" stop-color="#22b1e3"></stop><stop offset="100%" stop-color="#7366ff"></stop></linearGradient><path fill="url(#i)" d="m85.495 59.619-7.991-20.124s-.825-8.336-1.578-11.527C72.598 13.609 56.592.58 39.236.58 18.122.58 1 17.708 1 38.839c0 12.205 5.717 23.083 14.618 30.084v24.653h.005a5.35 5.35 0 0 0 5.355 5.27h30.103a5.349 5.349 0 0 0 5.349-5.185v-12.16c0 1.642 11.486 2.166 15.122 1.665 4.222-.583 5.953-4.358 5.953-8.572V63.901h5.128a3.094 3.094 0 0 0 3.093-3.083c0-.429-.078-.836-.231-1.199M60.298 39.075c-.118 1.835-.431 3.682-1.003 5.469l5.587 6.267c-.647 1.284-1.341 2.565-2.18 3.773L54.43 52.74a23.361 23.361 0 0 1-4.284 3.61l.239 8.403a27.492 27.492 0 0 1-4.086 1.469l-5.12-6.694a22.944 22.944 0 0 1-5.579-.023l-5.179 6.562a24.741 24.741 0 0 1-4.083-1.528l.367-8.303c-.813-.538-1.622-1.109-2.389-1.763a20.15 20.15 0 0 1-1.958-1.927l-8.096 1.677a29.283 29.283 0 0 1-2.157-3.788l5.553-6.054a21.787 21.787 0 0 1-.989-5.73l-7.214-3.903c.141-1.424.43-2.856.802-4.267l8.053-1.057a21.784 21.784 0 0 1 2.993-5.067l-3.026-7.591c1.064-1.022 2.204-1.922 3.379-2.755l6.85 4.371a21.627 21.627 0 0 1 5.541-1.941l2.563-7.766a29.548 29.548 0 0 1 4.362.044l2.466 7.829a21.687 21.687 0 0 1 5.412 2.033l7-4.325c.59.427 1.171.85 1.736 1.33.563.48 1.074.992 1.591 1.505l-3.189 7.664a21.473 21.473 0 0 1 2.784 4.938l8.247 1.202c.356 1.419.615 2.861.747 4.301z" transform="translate(-43.36 -49.71)"></path></g><g transform="translate(66.7 64.68)scale(1.5968)"><linearGradient id="j" x1="0" x2="1" y1="0" y2="0" gradientUnits="objectBoundingBox"><stop offset="0%" stop-color="#22b1e3"></stop><stop offset="100%" stop-color="#7366ff"></stop></linearGradient><path fill="url(#j)" d="M38.681 27.994a8.958 8.958 0 0 0-8.958 8.958c0 1.627.457 3.142 1.193 4.47 2.201 3.963 2.783 6.188 3.142 8.34.301 1.807.718 2.225 2.082 2.225h5.078c1.364 0 1.781-.419 2.083-2.225.358-2.152.941-4.377 3.14-8.34.737-1.329 1.195-2.843 1.195-4.47a8.956 8.956 0 0 0-8.955-8.958" transform="translate(-38.68 -39.99)"></path></g></svg></svg>